<svg xmlns="http://www.w3.org/2000/svg" width="64" height="40" viewBox="36 41 28 18"><path d="M63 41.5H37a1 1 0 0 0-1 1v15a1 1 0 0 0 1 1h26a1 1 0 0 0 1-1v-15a1 1 0 0 0-1-1zm0 16H37v-15h26v15z"/><path d="M52.842 48.297h-1.706v-3.409h-2.272v3.409h-1.705l2.843 2.843 2.84-2.843zm2.465 3.714a64.42 64.42 0 0 0-1.143-1.202.852.852 0 0 0-.592-.237h-1l1.742 1.701h-2.013a.16.16 0 0 0-.139.076l-.464 1.063H48.3l-.464-1.063a.158.158 0 0 0-.138-.076h-2.013l1.741-1.701h-.999a.86.86 0 0 0-.593.237c-.226.222-1.023 1.076-1.142 1.202-.278.295-.431.53-.359.823l.318 1.746c.074.292.393.533.712.533h9.271c.318 0 .64-.241.711-.533l.318-1.746c.074-.293-.078-.528-.356-.823z"/></svg>