<svg xmlns="http://www.w3.org/2000/svg" width="40" height="40" viewBox="30 30 40 40"><path d="M50.083 34c-.037 0 0 .008 0 .008-.037 0-.073-.008-.109-.008-6.758 0-11.553 4.904-11.553 11.661 0 3.589 1.659 5.757 3.121 7.67 1.423 1.86 2.652 3.466 2.652 6.313 0 .979.288 1.773.804 2.334v1.48c0 .35 1.271 1.27 1.271 1.27v.637c0 .35.271.635.621.635h6.357c.35 0 .648-.285.648-.635v-.637s1.271-.92 1.271-1.27v-1.697c.383-.543.598-1.254.598-2.117 0-2.848 1.242-4.453 2.664-6.313 1.463-1.913 3.148-4.081 3.148-7.67C61.578 38.904 56.84 34 50.083 34m6.327 17.787c-1.486 1.944-3.146 4.15-3.146 7.857h-6.527c0-3.707-1.687-5.913-3.173-7.857-1.396-1.823-2.6-3.396-2.6-6.126 0-5.368 3.75-9.119 9.119-9.119 5.084 0 9.022 3.75 9.022 9.119 0 2.73-1.3 4.303-2.695 6.126"/></svg>