<svg width="40" height="19" viewBox="0 0 40 19" xmlns="http://www.w3.org/2000/svg"><title>FedEx_Express</title><g fill="none"><path fill="#FF5900" d="M31.638 4.405l1.558 1.718 1.5-1.718H37.9l-3.13 3.52 3.173 3.55H34.61l-1.544-1.73-1.53 1.73h-3.218l3.147-3.534-3.147-3.536zm-3.32 0v2.389h-3.563v2.192h3.563v2.49h-6.181V.337h6.181V2.82h-3.563v1.584z"/><path d="M19.53.338v4.558h-.03c-.577-.664-1.298-.894-2.135-.894-1.715 0-3.006 1.166-3.46 2.706-.517-1.697-1.85-2.738-3.827-2.738-1.606 0-2.874.72-3.535 1.895v-1.46H3.224V2.821h3.622V.338H.266v11.137h2.958V6.794h2.95a4.438 4.438 0 0 0-.136 1.101c0 2.323 1.775 3.953 4.04 3.953 1.905 0 3.16-.894 3.824-2.524h-2.536c-.342.49-.603.635-1.288.635-.795 0-1.48-.693-1.48-1.515h5.162c.224 1.845 1.661 3.436 3.634 3.436.85 0 1.63-.418 2.106-1.125h.029v.721h2.607V.338H19.53zM8.68 6.827c.164-.708.713-1.17 1.398-1.17.754 0 1.275.448 1.412 1.17H8.68zm9.266 2.953c-.961 0-1.559-.896-1.559-1.831 0-1 .52-1.96 1.56-1.96 1.077 0 1.506.96 1.506 1.96 0 .948-.455 1.83-1.507 1.83zm4.191 7.264v-3.99h2.205v.297h-1.841v1.471h1.763v.298h-1.763v1.625h1.924v.299h-2.288zm2.551 0l1.075-1.433-1.02-1.356h.414l.832 1.108.816-1.108h.413l-1.036 1.356 1.08 1.433h-.418l-.893-1.185-.85 1.185h-.413zm3.274 1.046h-.336v-3.002c0-.276 0-.557-.017-.833h.331l.011.42c.209-.332.485-.486.899-.486.86 0 1.228.71 1.228 1.46s-.369 1.461-1.228 1.461c-.387 0-.69-.148-.888-.469v1.45zm1.758-2.44c0-.596-.248-1.18-.91-1.18-.622 0-.848.513-.848 1.18 0 .666.226 1.179.849 1.179.661 0 .91-.584.91-1.18zm2.087-1.136c-.557 0-.75.469-.75.953v1.577h-.337v-1.968c0-.27-.005-.545-.016-.82h.332l.021.402c.166-.32.442-.469.811-.469.05 0 .105.005.154.011v.337c-.077-.012-.138-.023-.215-.023zm.627 1.196c0 .628.297 1.146.91 1.146.473 0 .694-.314.776-.628h.32c-.15.584-.508.882-1.141.882-.85 0-1.224-.628-1.224-1.41 0-.8.391-1.51 1.268-1.51.887 0 1.124.776 1.124 1.52h-2.033zm.01-.253h1.665c0-.546-.258-1.015-.788-1.015-.48 0-.81.364-.876 1.015zm3.336 1.653c-.573 0-1.002-.27-1.002-.882h.336c0 .419.275.628.683.628.38 0 .678-.182.678-.556 0-.336-.347-.425-.71-.53-.441-.126-.921-.264-.921-.804 0-.6.501-.777.97-.777.54 0 .943.209.959.788h-.337c-.016-.33-.253-.518-.611-.518-.281 0-.623.11-.623.474 0 .331.342.425.705.524.442.12.927.253.927.793-.001.628-.486.86-1.054.86zm2.332 0c-.574 0-1.003-.27-1.003-.882h.336c0 .419.276.628.684.628.38 0 .678-.182.678-.556 0-.336-.348-.425-.711-.53-.44-.126-.92-.264-.92-.804 0-.6.501-.777.97-.777.54 0 .942.209.959.788h-.337c-.016-.33-.253-.518-.612-.518-.28 0-.622.11-.622.474 0 .331.341.425.706.524.44.12.926.253.926.793-.001.628-.486.86-1.054.86z" fill="#2A007C"/></g></svg>