<svg class="nc-icon colored" xmlns="http://www.w3.org/2000/svg" width="48" height="48" viewBox="0 0 48 48"><path fill="#E6E6E6" d="M42 1H6a1 1 0 0 0-1 1v42a1 1 0 0 0 1.554.832L12 41.202l5.446 3.63a1 1 0 0 0 1.109 0L24 41.202l5.446 3.63a1 1 0 0 0 1.109 0L36 41.202l5.446 3.63a.993.993 0 0 0 1.026.05A1 1 0 0 0 43 44V2a1 1 0 0 0-1-1z"/><path fill="#B3B3B3" d="M27 15H14a1 1 0 0 1 0-2h13a1 1 0 0 1 0 2zm7 0h-2a1 1 0 0 1 0-2h2a1 1 0 0 1 0 2zm-7 8H14a1 1 0 0 1 0-2h13a1 1 0 0 1 0 2zm7 0h-2a1 1 0 0 1 0-2h2a1 1 0 0 1 0 2zm-7 8H14a1 1 0 0 1 0-2h13a1 1 0 0 1 0 2zm7 0h-2a1 1 0 0 1 0-2h2a1 1 0 0 1 0 2z"/></svg>