<svg width="32" height="32" viewBox="0 0 32 32" xmlns="http://www.w3.org/2000/svg"><title>PayPal</title><g fill="none"><path d="M4.198 23.234h-2.46a.342.342 0 0 0-.337.289l-.995 6.305a.205.205 0 0 0 .203.237h1.174a.342.342 0 0 0 .338-.29l.268-1.7a.341.341 0 0 1 .337-.288h.779c1.62 0 2.554-.784 2.798-2.338.11-.68.005-1.213-.313-1.587-.35-.41-.97-.628-1.792-.628zm.283 2.303c-.134.882-.808.882-1.46.882H2.65l.26-1.647a.205.205 0 0 1 .202-.173h.17c.445 0 .863 0 1.08.253.129.15.169.375.12.685zm7.067-.028H10.37c-.1 0-.187.073-.202.173l-.052.329-.083-.12c-.254-.37-.823-.493-1.39-.493-1.302 0-2.413.986-2.63 2.368-.112.69.048 1.349.44 1.809.358.423.872.599 1.482.599 1.049 0 1.63-.674 1.63-.674l-.052.327a.205.205 0 0 0 .202.237h1.06a.342.342 0 0 0 .338-.288l.637-4.03a.204.204 0 0 0-.202-.237zM9.907 27.8a1.312 1.312 0 0 1-1.329 1.124c-.342 0-.615-.11-.79-.318-.175-.206-.24-.5-.185-.827a1.318 1.318 0 0 1 1.32-1.133c.333 0 .605.11.784.32.18.212.25.508.2.834zm7.913-2.291h-1.184a.343.343 0 0 0-.283.15l-1.632 2.404-.692-2.31a.343.343 0 0 0-.328-.244h-1.163a.205.205 0 0 0-.194.27l1.303 3.826-1.225 1.73a.205.205 0 0 0 .167.323h1.182a.341.341 0 0 0 .28-.147l3.936-5.68a.205.205 0 0 0-.168-.322z" fill="#253B80"/><path d="M21.737 23.234h-2.46a.342.342 0 0 0-.337.289l-.994 6.305a.205.205 0 0 0 .202.237h1.262a.24.24 0 0 0 .236-.202l.282-1.788a.341.341 0 0 1 .337-.288h.778c1.62 0 2.555-.784 2.8-2.338.11-.68.004-1.213-.315-1.587-.349-.41-.968-.628-1.791-.628zm.284 2.303c-.135.882-.809.882-1.461.882h-.37l.26-1.647a.204.204 0 0 1 .202-.173h.17c.444 0 .863 0 1.08.253.129.15.168.375.119.685zm7.066-.028H27.91a.204.204 0 0 0-.202.173l-.052.329-.083-.12c-.255-.37-.823-.493-1.39-.493-1.302 0-2.413.986-2.629 2.368-.112.69.047 1.349.438 1.809.36.423.873.599 1.483.599 1.049 0 1.63-.674 1.63-.674l-.052.327a.205.205 0 0 0 .203.237h1.06a.342.342 0 0 0 .337-.288l.637-4.03a.205.205 0 0 0-.203-.237zM27.445 27.8a1.312 1.312 0 0 1-1.328 1.124c-.341 0-.615-.11-.79-.318-.175-.206-.24-.5-.186-.827a1.319 1.319 0 0 1 1.32-1.133c.334 0 .606.11.785.32.18.212.252.508.2.834zm3.03-4.393l-1.01 6.421a.205.205 0 0 0 .203.237h1.014a.341.341 0 0 0 .338-.29l.995-6.304a.205.205 0 0 0-.202-.237h-1.136c-.1 0-.187.074-.202.173z" fill="#179BD7"/><path d="M14.708 19.147l.341-2.17-.76-.017h-3.634L13.18.952a.206.206 0 0 1 .205-.175h6.126c2.034 0 3.437.423 4.17 1.258.343.392.562.801.668 1.252.11.473.113 1.038.004 1.727l-.007.05v.441l.343.195c.29.153.52.33.696.53.294.335.484.761.564 1.266.083.52.055 1.137-.08 1.836-.157.805-.41 1.506-.753 2.079a4.275 4.275 0 0 1-1.192 1.306 4.835 4.835 0 0 1-1.605.724 8.005 8.005 0 0 1-2.006.232h-.477c-.34 0-.672.123-.932.343-.26.225-.433.532-.486.867l-.035.196-.604 3.823-.027.14c-.008.045-.02.067-.038.082a.101.101 0 0 1-.063.023h-2.943z" fill="#253B80"/><path d="M25.014 5.115c-.018.117-.039.236-.062.359-.808 4.148-3.572 5.58-7.102 5.58h-1.797a.873.873 0 0 0-.863.74l-.92 5.835-.26 1.655a.46.46 0 0 0 .453.531h3.188a.767.767 0 0 0 .758-.646l.031-.162.6-3.809.039-.209a.767.767 0 0 1 .757-.648h.477c3.088 0 5.506-1.254 6.213-4.882.295-1.516.142-2.781-.64-3.672a3.048 3.048 0 0 0-.872-.672z" fill="#179BD7"/><path d="M24.17 4.778a6.372 6.372 0 0 0-.786-.175 9.981 9.981 0 0 0-1.585-.115h-4.801a.762.762 0 0 0-.757.648l-1.021 6.469-.03.189a.873.873 0 0 1 .863-.74h1.797c3.53 0 6.294-1.433 7.102-5.58.024-.123.044-.242.062-.36a4.306 4.306 0 0 0-.845-.336z" fill="#222D65"/><path d="M16.241 5.136a.763.763 0 0 1 .757-.647h4.801c.57 0 1.1.037 1.585.115a6.372 6.372 0 0 1 .967.23c.238.08.46.173.664.28.24-1.532-.002-2.576-.83-3.52C23.27.554 21.621.108 19.511.108h-6.126a.875.875 0 0 0-.865.74L9.969 17.02c-.05.32.197.608.52.608h3.781l.95-6.024 1.021-6.47z" fill="#253B80"/></g></svg>