<svg width="70" height="69" viewBox="0 0 70 69" xmlns="http://www.w3.org/2000/svg"><title>Shape</title><path d="M13.211-.28s-.353.354-.919 1.06c-.353.354-.636.779-1.06 1.344-.213.212-.425.566-.708.849-.212.353-.495.636-.707.99-.424.707-1.06 1.485-1.626 2.333-.495.92-1.06 1.91-1.626 2.9-.566.99-.99 2.262-1.485 3.464-.495 1.202-.849 2.546-1.344 3.89-.212.636-.283 1.413-.495 2.191-.141.707-.353 1.485-.424 2.263-.141 1.556-.495 3.182-.424 4.808-.212 3.324.212 6.86.848 10.324.707 3.536 2.192 7 3.89 10.395 1.767 3.323 4.242 6.363 6.788 9.05 2.899 2.758 5.869 5.02 9.121 6.86 3.394 1.696 6.788 3.11 10.324 3.818 3.535.707 7.071 1.131 10.324.848 1.697 0 3.252-.283 4.808-.424.778-.07 1.556-.283 2.263-.424.707-.142 1.485-.354 2.192-.495 1.343-.495 2.687-.849 3.889-1.344 1.202-.495 2.404-.99 3.465-1.485.99-.565 1.98-1.131 2.899-1.626.848-.566 1.626-1.06 2.333-1.626.354-.212.637-.495.99-.707.283-.283.566-.425.849-.708.565-.424.919-.777 1.343-1.06.707-.566 1.061-.92 1.061-.92l-.99.99-1.202 1.203-.778.777c-.283.283-.636.495-.92.778-.706.566-1.413 1.132-2.262 1.697-.848.566-1.838 1.132-2.828 1.839-1.061.636-2.263 1.131-3.465 1.768-.637.353-1.273.565-1.91.777-.706.283-1.343.495-2.05.778-.707.283-1.414.424-2.192.637-.778.212-1.485.495-2.263.565-1.626.212-3.252.566-5.02.637-3.465.353-7.071 0-10.748-.707l-2.758-.637c-.92-.212-1.838-.566-2.758-.92l-1.485-.494-1.343-.636c-.849-.425-1.768-.778-2.687-1.273-3.465-1.91-6.788-4.384-9.617-7.071l-1.98-2.263c-.707-.707-1.272-1.556-1.909-2.334l-.919-1.202-.424-.565-.354-.637a30.663 30.663 0 0 0-1.555-2.545c-.425-.849-.849-1.839-1.273-2.687l-.566-1.414-.495-1.344c-.353-.92-.707-1.838-.92-2.758l-.636-2.757c-.707-3.677-.99-7.354-.707-10.748 0-1.697.425-3.395.637-5.02.07-.779.424-1.557.565-2.264.213-.777.354-1.485.637-2.192.283-.707.495-1.343.778-2.05.282-.707.495-1.344.777-1.91.637-1.202 1.132-2.404 1.768-3.464.637-1.06 1.273-1.98 1.839-2.829.565-.848 1.202-1.626 1.697-2.262.212-.354.495-.637.778-.92l.777-.778L12.221.851c.637-.777.99-1.131.99-1.131z" fill="#FF6D19"/></svg>