<svg width="28" height="32" viewBox="0 0 28 32" xmlns="http://www.w3.org/2000/svg"><title>Group</title><g fill="none" fill-rule="evenodd"><path fill="#301506" d="M1.267 9.603L1.38 22.6l2.92 3.607 8.76 4.638 10.765-5.268 2.233-5.325-.23-17.234-8.13-.23-8.474 1.375-7.73 4.466z"/><path d="M13.81.21C8.705.21 4.254 1.198.578 3.146v15.576c0 3.277 1.231 6.017 3.56 7.927 2.163 1.774 8.85 4.697 9.67 5.052.778-.338 7.545-3.307 9.673-5.052 2.328-1.909 3.56-4.65 3.56-7.927V3.146C23.364 1.198 18.913.21 13.808.21zm7.555 3.016c1.522.02 3.016.114 4.46.248v15.247c0 2.93-1.063 5.297-3.115 6.987-1.832 1.51-7.359 3.985-8.9 4.665-1.563-.689-7.103-3.196-8.903-4.664-2.04-1.661-3.113-4.084-3.113-6.987v-8.91c5.86-5.374 12.977-6.672 19.57-6.586zm-7.21 7.1c-1.256 0-2.27.28-3.103.819v15.001h2.302V21.3c.23.068.564.13 1.036.13 2.555 0 4.023-2.302 4.023-5.664 0-3.355-1.512-5.44-4.259-5.44zm7.867 0c-1.514.044-3.098 1.14-3.088 3 .004 1.225.343 2.14 2.241 3.254 1.013.595 1.42.987 1.438 1.709.02.803-.535 1.287-1.38 1.284-.734-.006-1.612-.414-2.2-.937v2.119a5.04 5.04 0 0 0 2.53.714c2.274 0 3.29-1.607 3.334-3.08.043-1.341-.328-2.357-2.251-3.487-.859-.504-1.537-.835-1.514-1.672.022-.818.701-1.106 1.353-1.1.805.007 1.583.453 2.063.945v-2c-.405-.313-1.262-.788-2.526-.75zm-19.052.233v7.236c0 2.44 1.154 3.674 3.431 3.674 1.41 0 2.59-.326 3.47-.924V10.56h-2.3v8.676c-.25.172-.622.282-1.089.282-1.055 0-1.212-.968-1.212-1.62V10.56h-2.3zm11.2 1.62c1.335 0 1.889 1.067 1.889 3.646 0 2.516-.633 3.732-1.958 3.732-.312 0-.583-.077-.747-.14v-7.07c.186-.094.503-.167.816-.167z" fill="#FAB80A" fill-rule="nonzero"/></g></svg>