<svg width="38" height="31" viewBox="0 0 38 31" xmlns="http://www.w3.org/2000/svg"><title>United_States_Postal_Service_Logo Copy</title><g fill="none"><path d="M2.046 23.925l-.374 1.757c-.133.607.276.882.958.882.684 0 1.205-.275 1.335-.882.38-1.757-.004 0 .38-1.757h-.573l-.339 1.583c-.086.405-.3.647-.72.647-.437-.003-.527-.245-.437-.647-.01.04.34-1.583.34-1.583h-.57zm2.847 0l-.55 2.592h.507l.4-1.924h.011l.64 1.924h.72l.549-2.592h-.506l-.409 1.945H6.25l-.615-1.945h-.741zm2.825 0l-.548 2.592h.57l.55-2.592h-.572zm.955 0l-.09.412h.806l-.463 2.18h.571l.463-2.18h.806l.087-.412h-2.18zm2.563 0l-.553 2.592h1.879l.087-.413h-1.304l.148-.708h1.138l.083-.383h-1.138l.144-.676h1.306l.086-.412h-1.876zm2.292 0l-.548 2.592h1.17c.724 0 1.417-.477 1.573-1.41.112-.661-.152-1.182-.937-1.182h-1.258zm4.297 0c-.672 0-1.005.238-1.055.611-.083.621 1.015.99.933 1.362-.051.218-.319.206-.535.206h-.705l-.087.413h.875c.716 0 1.027-.257 1.084-.612.104-.636-1.012-.964-.925-1.376.029-.127.17-.192.48-.192h.611l.09-.412h-.766zm1.06 0l-.09.412h.806l-.463 2.18h.571l.463-2.18h.806l.087-.412h-2.18zm2.785 0l-1.485 2.592h.571l1.138-2.078.229 1.665h-.818l-.224.413h1.677l-.405-2.592h-.683zm1.314 0l-.09.412h.806l-.463 2.18h.571l.463-2.18h.805l.088-.412h-2.18zm2.56 0l-.553 2.592h1.88l.087-.413h-1.306l.148-.708h1.14l.082-.383h-1.138l.145-.676h1.304l.087-.412h-1.875zm3.133 0c-.673 0-1.006.238-1.056.611-.083.621 1.015.99.933 1.362-.051.218-.319.206-.536.206h-.705l-.086.413h.874c.716 0 1.027-.257 1.086-.612.104-.636-1.013-.964-.927-1.376.03-.127.17-.192.482-.192h.61l.09-.412h-.765zm-14.66.412h.582c.473 0 .642.351.57.763-.1.582-.473 1.004-1.12 1.004h-.408l.375-1.767zM4.761 28.2c-.803 0-1.471.42-1.667 1.341-.155.737.294 1.344 1.092 1.344.81 0 1.46-.4 1.663-1.344.166-.77-.293-1.34-1.088-1.34zm22.879 0c-.796 0-1.561.412-1.757 1.341-.198.929.39 1.344 1.186 1.344.22 0 .431-.025.64-.057l.141-.445a2.77 2.77 0 0 1-.695.09c-.517 0-.809-.346-.686-.932.123-.586.564-.93 1.08-.93.265 0 .445.037.607.084l.051-.437a3.292 3.292 0 0 0-.567-.058zm-20.394.047c-.673 0-1.006.239-1.056.611-.083.622 1.015.99.933 1.363-.05.217-.319.206-.535.206h-.705l-.088.412h.876c.716 0 1.026-.257 1.084-.611.105-.636-1.012-.965-.925-1.377.029-.127.17-.192.482-.192h.61l.09-.412h-.766zm1.059 0l-.09.412h.806l-.463 2.18h.571l.464-2.18h.805l.086-.412H8.306zm8.343 0c-.673 0-1.006.239-1.056.611-.084.622 1.015.99.933 1.363-.05.217-.319.206-.535.206h-.705l-.087.412h.875c.715 0 1.026-.257 1.084-.611.105-.636-1.012-.965-.926-1.377.029-.127.17-.192.482-.192h.61l.09-.412h-.765zm1.26 0l-.553 2.592h1.88l.086-.412h-1.304l.148-.71h1.139l.083-.383h-1.139l.144-.675h1.305l.087-.412h-1.876zm2.29 0l-.549 2.592h.571l.463-2.183h.513c.318 0 .346.176.314.34-.06.306-.329.429-.621.429-.055 0-.146.004-.218-.007l.47 1.42h.626l-.427-1.117c.38-.054.706-.324.741-.813.033-.434-.17-.661-.675-.661H20.2zm8.47 0l-.551 2.592h1.88l.086-.412h-1.305l.148-.71h1.14l.082-.383H29.01l.144-.675h1.305l.086-.412H28.67zm-27.54 0L.58 30.838h.572l.462-2.18h.466c.21 0 .354.105.293.387-.032.155-.173.423-.564.423-.086 0-.18-.011-.252-.018l.029.376c.082.007.18.021.27.021.514 0 .966-.296 1.07-.788.07-.325.004-.813-.556-.813H1.13zm9.966 0L9.61 30.839h.57l1.14-2.079.226 1.667h-.816l-.224.412h1.676l-.403-2.592h-.685zm1.936 0l-.55 2.592h1.754l.09-.412h-1.182l.463-2.18h-.575zm9.354 0l.39 2.592h.676l1.475-2.592h-.564l-1.138 2.08-.268-2.08h-.57zm2.886 0l-.55 2.592h.571l.55-2.592h-.571zm-20.6.365c.528 0 .706.404.594.93-.124.585-.47.932-.987.932-.536 0-.713-.43-.601-.933.134-.585.478-.929.994-.929z" fill="#15569C"/><path fill="#ED192D" d="M1.333 27.286l-.04.192H30.71l.04-.192H1.335z"/><path fill="#FFF" d="M33.198 22.781L38.038.01H6.345l-4.84 22.77h31.693z"/><path d="M36.994.848L7.018.85 7 .95s17.623 3.618 17.972 3.68c4.049.715 3.924 1.496 3.924 1.496 2.837-.014 3.185.1 3.681.514 1.492 1.246-.933 4.918-.933 4.918-.347.256-26.561 10.38-26.561 10.38h27.426L36.994.847zM21.418 5.725c-.795-.007-1.354.005-1.418.001H5.986L2.543 21.943s10.546-5.176 11.836-5.839c2.643-1.357 6.297-3.151 9.675-4.301.643-.218 3.4-1.068 5.005-1.354.622-.112.887-.217.88-.334-.025-.332-.65-.354-1.71-.303-3.233.152-9.428 2.62-11.212 3.56l-2.012-6.239h12.862c.433-1.213-4.065-1.39-6.45-1.408zm6.819 1.502c-.093 0-.174.063-.282.21-.099.127-.179.213-.435.342-.397.195-1.436.305-1.922.346-.467.039-.593.086-.601.266-.005.161.07.253.739.253 1.54 0 4.313-.581 5.148-.315.441.141.087.927-.275 1.96-.14.399.135.37.295.195.16-.176.878-1.492.957-2.162.11-.952-.706-1.095-1.832-1.095h-1.792z" fill="#15569C"/></g></svg>