<svg xmlns="http://www.w3.org/2000/svg"><symbol id="baby" viewBox="0 0 386.588 386.588"><path d="M49.419 244.723c16.438 45.334 54.559 79.707 100.532 93.25 8.144 15.661 24.5 26.402 43.342 26.402 18.84 0 35.196-10.741 43.336-26.402 45.974-13.543 84.098-47.922 100.532-93.25 27.304-.311 49.426-22.614 49.426-49.998 0-27.379-22.116-49.687-49.426-50-10.504-28.975-29.892-53.466-54.498-70.939v19.288c0 1.37-.226 2.685-.548 3.958 18.273 15.82 32.272 36.477 39.524 60.252l2.345 7.699 7.958-1.172c1.814-.262 3.276-.387 4.641-.387 17.256 0 31.298 14.042 31.298 31.301 0 17.264-14.042 31.305-31.298 31.305-1.364 0-2.826-.128-4.616-.39l-7.977-1.193-2.351 7.715c-11.923 39.087-42.052 69.715-79.549 84.231.006-.286.043-.566.043-.853 0-9.268-2.643-17.921-7.155-25.318 4.524-4.865 7.155-10.607 7.155-16.843 0-17.963-21.452-32.029-48.841-32.029-27.392 0-48.841 14.066-48.841 32.029 0 6.235 2.631 11.978 7.152 16.843-4.509 7.397-7.152 16.051-7.152 25.318 0 .286.037.566.043.853-37.503-14.517-67.626-45.145-79.549-84.231l-2.351-7.715-7.974 1.193c-1.796.262-3.264.39-4.622.39-17.26 0-31.295-14.041-31.295-31.305 0-17.259 14.036-31.301 31.295-31.301 1.352 0 2.825.125 4.634.387l7.961 1.172 2.345-7.699c7.979-26.178 24.167-48.519 45.212-64.828V69.639c-27.554 17.628-49.359 43.711-60.733 75.073C22.116 145.038 0 167.345 0 194.725c0 27.383 22.116 49.687 49.419 49.998zm113.734 70.811c0-5.462 1.571-10.528 4.128-14.949 4.095-7.094 10.917-12.373 19.104-14.31 2.226-.535 4.521-.877 6.908-.877 2.387 0 4.683.354 6.905.877 8.185 1.931 15.004 7.216 19.103 14.31 2.551 4.421 4.128 9.487 4.128 14.949 0 2.338-.322 4.585-.834 6.771-2.362 10.182-9.877 18.299-19.649 21.635-3.051 1.048-6.26 1.736-9.658 1.736s-6.61-.688-9.658-1.736c-9.773-3.336-17.299-11.459-19.649-21.635-.497-2.186-.828-4.433-.828-6.771zm30.141-55.491c18.109 0 30.135 8.026 30.135 13.324 0 .913-.475 1.918-1.163 2.935-8.11-6.011-18.115-9.615-28.972-9.615s-20.864 3.604-28.981 9.615c-.679-1.017-1.16-2.021-1.16-2.935 0-5.298 12.023-13.324 30.141-13.324z"/><path d="M153.8 213.169c16.082 0 16.082-24.941 0-24.941s-16.082 24.941 0 24.941zM232.782 211.61c16.082 0 16.082-24.941 0-24.941-16.081 0-16.081 24.941 0 24.941zM142.371 124.061h2.076l1.882-.88c17.156-8.017 29.094-14.273 37.518-19.284 3.879 1.589 8.114 2.5 12.559 2.5s8.677-.911 12.562-2.5c8.428 5.011 20.362 11.268 37.51 19.284l1.888.88h2.076c9.858 0 18.115-6.616 20.812-15.606.591-1.982 1.011-4.04 1.011-6.217V44.049c0-12.032-9.785-21.823-21.823-21.823h-2.076l-1.888.88c-10.498 4.908-19.047 9.158-26.05 12.875-4.433 2.35-8.202 4.469-11.46 6.409-2.898-1.185-6.028-1.845-9.268-2.168-1.099-.112-2.164-.332-3.294-.332s-2.201.225-3.297.338c-3.236.323-6.366.977-9.262 2.167-3.267-1.945-7.027-4.058-11.46-6.408-7.008-3.718-15.551-7.962-26.058-12.876l-1.882-.898h-2.076c-12.035 0-21.824 9.789-21.824 21.824V102.232c0 2.177.417 4.232 1.011 6.217 2.7 8.995 10.954 15.612 20.813 15.612zm51.34-65.203c.88-.162 1.771-.274 2.694-.274s1.82.106 2.694.274c1.599.298 3.084.904 4.46 1.684 1.863 1.06 3.478 2.488 4.713 4.229.073.098.159.191.231.298a14.44 14.44 0 0 1 1.212 13.886 14.798 14.798 0 0 1-1.212 2.244 14.86 14.86 0 0 1-3.823 3.879c-.354.243-.743.435-1.121.648-2.119 1.208-4.542 1.957-7.154 1.957s-5.033-.749-7.158-1.957c-.374-.213-.761-.405-1.117-.648a14.715 14.715 0 0 1-3.821-3.879 14.063 14.063 0 0 1-1.215-2.238 14.368 14.368 0 0 1-1.236-5.824c0-2.98.91-5.754 2.457-8.068.219-.326.487-.6.722-.898a14.522 14.522 0 0 1 4.217-3.623c1.37-.786 2.856-1.386 4.457-1.69zm58.136-17.61a3.124 3.124 0 0 1 1.718 2.789V102.231c0 .25-.146.448-.195.679-.219.904-.719 1.702-1.522 2.106-9.365-4.445-19.272-9.502-27.474-14.029.499-.785.9-1.638 1.339-2.469 2.436-4.619 3.952-9.806 3.952-15.387 0-1.486-.25-2.898-.433-4.326-.407-3.075-1.108-6.056-2.289-8.805-.719-1.659-1.607-3.218-2.569-4.722.932-.518 1.905-1.035 2.874-1.564a426.025 426.025 0 0 1 5.991-3.179 555.953 555.953 0 0 1 18.608-9.287zM139.253 55.067v-11.03a3.13 3.13 0 0 1 1.72-2.789 563 563 0 0 1 16.443 8.163 528.718 528.718 0 0 1 8.163 4.308c.971.523 1.939 1.05 2.874 1.568-.968 1.501-1.851 3.06-2.563 4.719-.986 2.274-1.671 4.688-2.125 7.188-.35 1.933-.6 3.91-.6 5.943 0 5.581 1.516 10.763 3.955 15.388.436.831.834 1.678 1.34 2.463-8.205 4.527-18.109 9.59-27.475 14.039-.81-.414-1.309-1.206-1.525-2.11-.058-.229-.195-.43-.195-.679V55.067h-.012z"/></symbol></svg>